<?xml version="1.0" encoding="UTF-8"?>
<!DOCTYPE svg PUBLIC "-//W3C//DTD SVG 1.1//EN" "http://www.w3.org/Graphics/SVG/1.1/DTD/svg11.dtd">
<!-- Creator: CorelDRAW -->
<svg xmlns="http://www.w3.org/2000/svg" xml:space="preserve" width="8.5in" height="11in" style="shape-rendering:geometricPrecision; text-rendering:geometricPrecision; image-rendering:optimizeQuality; fill-rule:evenodd; clip-rule:evenodd"
viewBox="0 0 8.5 11"
 xmlns:xlink="http://www.w3.org/1999/xlink">
 <defs>
  <style type="text/css">
   <![CDATA[
    .str0 {stroke:#1F1A17;stroke-width:0.003}
    .str1 {stroke:black;stroke-width:0.003}
    .str2 {stroke:#1F1A17;stroke-width:0.0138898}
    .fil0 {fill:white}
    .fil1 {fill:#B0866C}
    .fil3 {fill:#0A0B0C;fill-rule:nonzero}
    .fil2 {fill:#F5C491;fill-rule:nonzero}
   ]]>
  </style>
 </defs>
 <g id="Layer_x0020_1">
  <metadata id="CorelCorpID_0Corel-Layer"/>
  <rect class="fil0 str0" x="1.03393" y="0.911" width="6.7634" height="8.71489"/>
  <path class="fil1 str1" d="M4.46896 7.72944l0.000244094 -0.0175512 -0.0492205 -0.08 -0.0100276 -0.0788189c0.0498307,0.000688976 0.153445,-0.00764961 0.200402,-0.0164921 0.0379252,-0.00714567 0.134287,-0.057878 0.169283,-0.0573937l0.0263307 0.000366142c0.0806614,0.00111417 0.227295,0.066689 0.226232,0.143571l-0.000122047 0.00877953c-0.000326772,0.0237008 -0.00452362,0.0241378 -0.00938189,0.0437598l-0.0526575 -0.000732283c-0.0143622,-0.00019685 -0.0262559,-0.00561811 -0.0260866,-0.0179134 0.00046063,-0.0330551 0.00600787,-0.0165157 0.00950787,-0.0525354l0.0193346 0.000716535 -0.0111654 0.0432835 0.0548976 0.000397638 -0.0101693 -0.0612244 -0.0526575 -0.000728346c-0.030815,-0.000425197 -0.0356417,0.0384606 -0.0360748,0.0697283l-0.000240157 0.0175472c-0.000307087,0.0221732 0.035748,0.0443858 0.0520472,0.0446102l0.0175512 0.000244094c0.0295787,0.000409449 0.0616496,-0.0146575 0.0620433,-0.0430315l0.000996063 -0.0417638 0.0534646 -0.0104921 -0.0141693 -0.0358898 -0.00433858 0.0272008c-0.0408543,-0.0101181 -0.0344134,-0.0132598 -0.0431535,-0.0532638 0.0274213,0.00266142 0.0310551,0.00920866 0.061311,0.00962598l0.114087 0.00157874c0.0658425,0.000909449 0.111815,-0.0423425 0.193681,-0.0412087l0.0263307 0.000362205c0.0375551,0.000519685 0.0698346,0.0280276 0.0693583,0.0624055 -0.000440945,0.0318819 -0.0108386,0.0306378 -0.0184055,0.061189 -0.0504409,-0.00182283 -0.0437008,-0.00718504 -0.0344961,-0.0443661 -0.0248031,0.00172047 -0.0350984,-0.000688976 -0.0354685,0.0258425l-0.000240157 0.0175512c-0.000283465,0.0204646 0.0228071,0.0442047 0.0432717,0.0444882l0.0263268 0.000366142c0.0441339,0.000610236 0.0624567,-0.0729409 0.0631339,-0.122016l0.000366142 -0.0263307c0.000291339,-0.0210984 -0.0138622,-0.0259921 -0.0239449,-0.0390039l0.0775709 -0.0304764 -0.00865354 -0.00889764c-0.0229291,0.0106181 -0.0720906,0.0253386 -0.105677,0.024874 -0.0383386,-0.000531496 -0.0316299,-0.0179961 -0.0699646,-0.0185236l-0.0526575 -0.000728346c-0.0593386,-0.000822835 -0.116398,0.0422756 -0.132248,0.0420591l-0.0263268 -0.000366142c-0.150185,-0.00207874 -0.34163,-0.127614 -0.445882,-0.129059 -0.0486772,-0.000673228 -0.0520354,0.033 -0.114571,0.0335276l-0.00796457 -0.00540945 0.0533307 -0.0785354 0.00838189 0.00568898 -0.000244094 0.0175512 0.0198937 0.000724409 0.00704331 -0.0442402c-0.116531,0.00807874 -0.0627165,0.062874 -0.141874,0.10337l-0.00540945 0.00781496 -0.104087 -0.0720315 0.00515354 -0.00744882 0.0614331 0.000850394c0.0123583,-0.0179134 0.0266417,-0.0224173 0.0269331,-0.0435157l0.000244094 -0.0175512c0.000346457,-0.0250945 -0.0419528,-0.0444685 -0.0608228,-0.0447323 -0.0205433,-0.000283465 -0.0353071,0.0140748 -0.0355906,0.0346181l-0.000122047 0.00877953c-0.000283465,0.0205394 0.0140748,0.0353031 0.0346181,0.0355866 0.0234685,0.000326772 0.0261339,-0.012311 0.0367559,-0.0268819l-0.0184685 -0.0250984 -0.0348386 0.000523622 -0.000149606 -0.0102205 0.0263268 0.000366142c0.0205433,0.000283465 0.0349055,0.0150472 0.0346181,0.0355906l-0.00011811 0.00877559c-0.00023622,0.0169528 -0.0161339,0.0348858 -0.0268189,0.0347402 -0.100925,-0.00139764 -0.0869173,-0.0620157 -0.0855748,-0.159185 0.0156929,0.0108268 0.015185,0.0177677 0.0348661,0.0180394l0.043878 0.000606299c0.0202205,0.000279528 0.0264134,-0.00574016 0.0266929,-0.0259606l0.000401575 -0.0347913 -0.0448819 -0.00905906 0.0181496 0.0434843c-0.0313504,-0.00304724 -0.0610079,-0.031437 -0.0607008,-0.0535079 0.000370079,-0.0268701 0.00772047,-0.0613346 0.0359528,-0.0609449l0.0179567 -0.00280709 0.192425 0.0232717c0.0415551,0.00552756 0.0525276,-0.00805118 0.0966575,-0.00744094 -0.0103031,0.0149409 -0.0536024,0.0676693 -0.0538701,0.0870354l-0.000362205 0.0263268c-0.000291339,0.0211339 0.0307953,0.0530945 0.0519252,0.0533858l0.0438819 0.000606299c0.0339646,0.000468504 0.0447362,-0.0614094 0.0452165,-0.0959291 0.00019685,-0.0144409 -0.0344213,-0.0355866 -0.0521732,-0.0358346 -0.0312559,-0.000433071 -0.0348189,0.0295591 -0.0358701,0.0606339l0.0436772 0.00969685 0.000606299 -0.043878c0.00775197,0.00449606 0.0174724,0.00595276 0.017311,0.0177913 -0.00023622,0.0169882 -0.0123346,0.0283937 -0.0182835,0.0524173 -0.029248,-0.00105906 -0.0700276,-0.0138228 -0.0697205,-0.0360787 0.000988189,-0.0714843 0.0754488,-0.104287 0.15065,-0.103244l0.00877559 0.00011811c0.0812913,0.00112598 -0.00026378,0.157996 0.150618,0.159638l-0.0119016 -0.0348307 -0.000244094 0.0175551c-0.0460394,-0.00166535 -0.0697205,-0.0360709 -0.0691142,-0.0799567l0.000606299 -0.0438819 0.0526575 0.000728346c0.131539,0.0018189 0.319882,0.118535 0.323134,0.118583 0.0361063,0.0005 0.0883543,-0.0417205 0.0887323,-0.0689961l0.000606299 -0.043878c0.000330709,-0.0237047 -0.00385433,-0.0242559 -0.00816929,-0.0440039l-0.043878 -0.000606299c-0.029189,-0.000405512 -0.0259213,0.0154016 -0.0226102,0.0479646l0.0223661 -0.0304094c0.0146496,0.0104803 0.0175354,0.0015 0.017189,0.0265669l-0.000122047 0.00877953c-0.000326772,0.0237008 -0.00452362,0.0241378 -0.00998819,0.0421102l-0.0258425 0.0100591c-0.143299,-0.0354843 -0.168894,-0.0918543 -0.323134,-0.118583 -0.0637874,-0.0110551 -0.141024,-0.00475197 -0.205197,-0.0168543 -0.079563,-0.0150079 -0.114236,-0.0248031 -0.180224,-0.0411457 0.0123583,-0.0179134 0.0266417,-0.0224173 0.0269331,-0.0435157 0.000370079,-0.0267756 -0.00793701,-0.0355315 -0.0168228,-0.0528976l-0.0351024 -0.000488189 -0.000244094 0.0175551 0.0334606 0.00109055 0.0100591 0.0258425c-0.011063,0.0160354 -0.0260354,0.034752 -0.0531457,0.034378 -0.0200354,-0.000279528 -0.0567677,-0.0287677 -0.0872756,-0.0363189 0.0373465,-0.031563 0.0706811,-0.0329213 0.0716693,-0.104343l0.000122047 -0.00877559c0.000393701,-0.0286339 -0.0041378,-0.0289685 -0.0169488,-0.044122l-0.00889764 0.00865354c0.0268661,0.0580315 -0.000625984,0.122882 -0.0631299,0.122016 -0.0985748,-0.00136614 -0.146717,-0.180992 -0.145307,-0.282898l0.000484252 -0.0351063c0.0375512,0.000519685 0.087752,0.00177953 0.0882441,-0.0338898l0.000122047 -0.00877559c0.000370079,-0.0265315 -0.00998819,-0.0244094 -0.0347402,-0.026815l-0.000240157 0.0175512 0.0263307 0.000366142c-0.00909449,0.0322559 -0.0209331,0.0339094 -0.0619213,0.034252 -0.00671654,-0.0307441 -0.0171417,-0.0297913 -0.0167008,-0.0616732l-0.00451969 -0.00951575 0.0340039 -0.218295c0.0362559,-0.000307087 0.0527913,-0.00897244 0.0532638,-0.0431535 0.000224409,-0.0161339 -0.0198228,-0.0226063 -0.0371654,-0.027252l0.24876 -0.252949 -0.233831 -0.0206969 -0.72648 0.16263 0.387563 0.229827c-0.00648031,0.0118504 -0.019815,0.0436142 -0.0357126,0.0433937 -0.0335512,-0.000464567 -0.00322835,0.00264961 -0.026315,-0.00920866l0.0178189 -0.0358701 -0.0367913 0.00969685 0.0098189 0.0612244 0.0526575 0.000728346c0.0335512,0.000464567 0.00315748,0.00274016 0.0264488,-0.00840945 0.00190551,0.0274803 0.00834252,0.0312953 0.0079252,0.0615512 -0.000496063,0.0359331 -0.0811811,0.0690984 -0.115059,0.0686299l-0.00877559 -0.00011811c-0.052811,-0.000732283 -0.067126,-0.0535984 -0.113362,-0.0542362 -0.0767008,-0.00106299 -0.0647756,0.0956575 -0.0978701,0.0951969 -0.0356142,-0.000492126 -0.0224646,-0.0218228 -0.0169449,-0.0441181 -0.0196299,0.00494882 -0.0263583,0.00168504 -0.0266929,0.0259606 -0.000279528,0.0202205 0.00574409,0.0264134 0.0259606,0.0266929l0.0175551 0.000244094c0.0411457,0.000566929 0.0484567,-0.0783307 0.0800787,-0.0778937 0.0329882,0.000456693 0.0518543,0.0446063 0.122256,0.0455827 0.0591142,0.000814961 0.0886378,-0.0207717 0.14078,-0.0243858 -0.00108661,0.0786102 -0.0467953,0.227575 -0.108469,0.22672l-0.00877559 -0.000122047c-0.0389882,-0.00053937 -0.0543661,-0.0214055 -0.0696024,-0.0448504 0.00785433,-0.0317126 0.0262717,-0.0786378 0.0625276,-0.0781378 0.0242795,0.000338583 0.0210118,0.00706693 0.0259646,0.0266929 -0.0234567,-0.00595669 -0.0164213,-0.00900394 -0.0349843,-0.00925984 -0.0135197,-0.000185039 -0.0267362,0.0290984 -0.026937,0.0435157 -0.000326772,0.023689 0.022878,0.0354291 0.0433937,0.0357126 0.0211339,0.000291339 0.0530945,-0.0307992 0.0533858,-0.0519291 0.000519685,-0.0375551 -0.0260787,-0.0705827 -0.0604606,-0.0710591 -0.035185,-0.000484252 -0.0797362,0.0532008 -0.0803189,0.0954449l-0.000122047 0.00877559c-0.000562992,0.0406417 0.0685354,0.0791693 0.122138,0.0543583 -0.0139055,0.0493189 -0.137803,0.107291 -0.0969016,0.0249882 -0.050063,0.00347244 -0.0297008,0.0141417 -0.0270591,0.0522953 -0.0829213,-0.00114961 -0.186846,0.0676339 -0.211594,0.0672913 -0.0467677,-0.000645669 -0.122764,-0.107028 -0.182843,-0.107858l-0.0351024 -0.000488189c-0.0654843,-0.000905512 -0.156618,0.0909252 -0.189693,0.134315 -0.0525157,0.0688898 -0.0950512,0.111469 -0.191441,0.13252 -0.0291024,-0.0200748 -0.122043,-0.0612362 -0.121531,-0.0982362 0.000559055,-0.040374 0.0267008,-0.11374 0.0630118,-0.113236 0.0465906,0.000641732 0.113654,0.0330354 0.113118,0.0717835 -0.000370079,0.0269252 -0.0221732,0.0376457 -0.0444882,0.0432756 0.00500787,-0.007 0.0178504,-0.0214252 0.0179173,-0.0260866 0.000370079,-0.0269449 -0.00739764,-0.0527677 -0.034378,-0.0531417l-0.0351024 -0.000484252c-0.0308819,-0.000429134 -0.0331811,0.0399252 -0.0360748,0.0697205 0.0166457,0.0256181 0.0359488,0.0531654 0.0782559,0.053752 0.0452008,0.000622047 0.0884606,-0.049315 0.0889764,-0.0865472 0.000688976,-0.0497913 -0.0740512,-0.0975787 -0.130307,-0.0983583l-0.0263268 -0.000362205c-0.0409724,-0.000566929 -0.0801693,0.0844567 -0.0808071,0.130543 -0.000685039,0.0496457 0.0719606,0.0831063 0.0949567,0.115425 -0.157783,0.0344646 -0.130764,0.186236 -0.248764,0.216004l-0.000122047 0.00877559 0.112835 -0.0670197 0.0415039 0.0459843 0.0306654 -0.0559252 -0.0438583 0.026248c0.0162559,-0.167315 0.159661,-0.0981969 0.274457,-0.153988 0.0931417,-0.0452677 0.151713,-0.190394 0.230878,-0.207689l-0.000850394 0.061437c-0.000251969,0.0182087 0.0250669,0.0442362 0.0344961,0.0443661 0.0269488,0.000370079 0.0527717,-0.00740157 0.0531457,-0.034378 0.000334646,-0.0242795 -0.00648031,-0.0212008 -0.0237717,-0.0266614l-0.00279921 0.0438504c-0.0281142,-0.00101575 -0.0439213,0.00225197 -0.0435157,-0.026937l0.000240157 -0.0175512c0.000318898,-0.0229843 0.0395433,-0.0521181 0.0533858,-0.0519252 0.0671181,0.000925197 0.0915197,0.0793543 0.112386,0.124441 -0.00654331,0.0119724 -0.035937,0.0599094 -0.0360748,0.0697244l-0.000362205 0.0263268c-0.000295276,0.0211299 0.0307953,0.0530945 0.0519252,0.0533858l0.0438819 0.000606299c0.0196772,0.000271654 0.0193622,-0.00667717 0.0330118,-0.0174213l0.0122047 -0.0785079c-0.0075748,-0.0116575 -0.0270945,-0.0354882 -0.0433937,-0.0357126 -0.0201024,-0.000279528 -0.010248,0.00283465 -0.0356496,0.00820079l-0.00899606 0.052311 0.0436732 0.00969685 0.000606299 -0.0438819 0.0175512 0.000244094c-0.000374016,0.0270669 -0.00469685,0.0701575 -0.0272992,0.0698425 -0.0357165,-0.000492126 -0.0470157,-0.0145118 -0.0609449,-0.0359528 0.0193307,-0.0780787 0.0370748,-0.0617638 0.100917,-0.0920709 0.0205709,-0.00976378 0.119602,-0.062878 0.129445,-0.0627402 0.0525551,0.000724409 0.0521732,0.0176142 0.0873976,0.0275433 -0.00101575,0.0734409 -0.0642244,0.169228 -0.125413,0.182594l0.000484252 -0.0351024c-0.0196299,0.00495276 -0.0263583,0.00168504 -0.0266929,0.0259646l-0.000366142 0.0263268 0.00707874 -0.00658268 0.0624016 0.0602087c-0.00530709,-0.0236102 -0.00854724,-0.0166614 -0.0082874,-0.0352244 0.000145669,-0.0106102 0.129071,-0.147433 0.177583,-0.146764 0.0409685,0.000566929 0.0611496,0.021315 0.0605827,0.0622835l-0.000362205 0.0263268c-0.000283465,0.0205433 -0.0150512,0.0349055 -0.0355906,0.0346181l-0.0175551 -0.000240157c-0.0202165,-0.000279528 -0.0262402,-0.00647244 -0.0259606,-0.0266969l0.000362205 -0.0263268c0.000338583,-0.0242756 0.00706299,-0.0210118 0.0279173,-0.0254016l-0.0195039 0.0518504 0.0263268 0.000366142c0.0202244,0.000279528 0.0264134,-0.00574016 0.0266929,-0.0259646l0.000244094 -0.0175512c0.000279528,-0.0202205 -0.00574409,-0.0264134 -0.0259646,-0.0266929l-0.0263268 -0.000366142c-0.0361535,-0.0005 -0.0445945,0.0507992 -0.0450945,0.0871575 -0.000318898,0.0229173 0.0487047,0.0533386 0.0694764,0.053626 0.0402559,0.000559055 0.069752,-0.0351378 0.0713031,-0.0780118 0.0137244,0.0103504 0.0338346,0.092252 0.0335236,0.114575l-0.000606299 0.043878c-0.000393701,0.0285906 -0.025374,0.0334961 -0.0444882,0.0432756 -0.0118465,-0.00648425 -0.0436142,-0.0198189 -0.0433937,-0.0357126 0.00034252,-0.0247126 0.00401969,-0.0161969 0.012752,-0.0230984l0.0308858 0.0412559c0.00998819,-0.00648819 0.0353898,-0.020122 0.0355906,-0.0346181 0.000251969,-0.0182126 -0.025063,-0.0442362 -0.0345,-0.0443661 -0.0335472,-0.000464567 -0.0530118,0.0252559 -0.0535039,0.0607047 -0.000417323,0.030311 0.0271181,0.038437 0.0520472,0.0446102 -0.0112638,0.0454882 -0.022063,0.096248 -0.0803189,0.0954449 -0.0242756,-0.000338583 -0.0210118,-0.00706693 -0.0259646,-0.0266969l0.0351063 0.000488189 -0.000409449 -0.0159252 -0.0255551 -0.0107677c-0.0163346,0.0106142 -0.0354567,0.0250591 -0.0358307,0.0521693 -0.000224409,0.0161339 0.0198228,0.0226102 0.0304606,0.0248622l-0.0950512 0.202469c-0.000791339,0.0570551 -0.0128543,0.131488 -0.0632559,0.130791 -0.0285866,-0.000397638 -0.0334961,-0.025378 -0.0458504,-0.0479213l0.0393071 -0.0213386 -0.0191772 0.0250118c0.00525591,0.00809055 0.0139213,0.0265276 0.0259646,0.0266929 0.0205433,0.000283465 0.0353071,-0.0140748 0.0355906,-0.0346181l0.000122047 -0.00877559c0.000279528,-0.0202205 -0.00574409,-0.0264134 -0.0259646,-0.0266929l-0.0175512 -0.000244094c-0.0204646,-0.000279528 -0.0442047,0.022811 -0.0444882,0.0432756l-0.000122047 0.00877559c-0.000440945,0.031748 0.0332244,0.04 0.0519291,0.0533858 -0.019748,0.00431102 -0.0202992,0.00849606 -0.0440039,0.00816929l-0.0351024 -0.000488189c-0.0303465,-0.000417323 -0.0695512,-0.0486142 -0.0691142,-0.0799567 0.00053937,-0.0391693 0.0375984,-0.0397559 0.0619134,-0.034252 -0.00178346,-0.0257598 -0.0110787,-0.0440433 -0.0344961,-0.0443661 -0.041437,-0.000574803 -0.0798976,0.0650748 -0.0804409,0.104217 -0.000751969,0.0544764 0.0764843,0.115169 0.130063,0.115913l0.0614331 0.000846457 -0.0071063 0.00631496 0.0675669 0.064748c0.0151024,-0.00981496 0.0353701,-0.0186102 0.0357126,-0.0433937 0.000334646,-0.0242835 -0.00648031,-0.0212008 -0.0244213,-0.0270748l0.00674409 0.0356024c-0.0247441,-0.00240157 -0.0351063,-0.000275591 -0.0347362,-0.026811l0.00011811 -0.00877559c0.000232283,-0.0167835 0.058937,-0.075622 0.0715591,-0.0955512 0.0256969,-0.0405748 0.0293622,-0.0784291 0.0491339,-0.127508 0.0250315,-0.0621496 0.106953,-0.160012 0.183035,-0.158961l0.0175551 0.000244094c0.030815,0.000425197 0.034563,0.0394291 0.0341299,0.0706929 -0.000279528,0.0202244 -0.0064685,0.0262441 -0.026689,0.0259646l-0.0263307 -0.000362205c-0.0202205,-0.000279528 -0.0262441,-0.00647244 -0.0259646,-0.0266929l0.000122047 -0.00877559c0.000326772,-0.0234724 0.0130276,-0.0257835 0.0285984,-0.0342677l-0.0111654 0.0432835 0.043878 0.000606299 0.000484252 -0.0351024c0.000279528,-0.0202205 -0.00574016,-0.0264134 -0.0259606,-0.0266929 -0.0521969,-0.000720472 -0.0619488,0.0365197 -0.0626457,0.0869134 -0.000173228,0.0125079 0.0454961,0.0445157 0.0608228,0.0447283 0.0237047,0.000330709 0.0242559,-0.00385433 0.0440039,-0.00816929l-0.000366142 0.0263268c-0.00076378,0.0552323 -0.0114685,0.0914724 -0.0113031,0.131543 0.000248031,0.0585748 0.0346299,0.0856063 0.0343504,0.105776 -0.000358268,0.0260157 -0.0265472,0.0786339 -0.0449724,0.078378 -0.0247126,-0.00034252 -0.0161969,-0.00401969 -0.0283976,-0.0217008l0.0288819 -0.0134016 0.000244094 -0.0175551c-0.0262047,0.0018189 -0.0439646,0.00570472 -0.0443622,0.0345 -0.000330709,0.0237008 0.00385433,0.024252 0.00816535,0.044l0.0438819 0.000606299c0.0503937,0.00069685 0.0783543,-0.0356654 0.0801969,-0.0866654 0.0341496,0.025752 0.14715,0.149843 0.146402,0.203909 -0.00111811,0.080815 -0.0937913,0.121594 -0.17722,0.120437 -0.0247598,-0.00034252 -0.0785276,-0.0340079 -0.0781339,-0.0625236l0.000244094 -0.0175512c0.000370079,-0.0269449 0.00885039,-0.0525433 0.0358307,-0.0521693l0.0175512 0.000240157c0.0335551,0.000464567 0.00323228,-0.00264961 0.0305354,0.0135906l-0.0310197 0.0215157c0.0029685,0.0132087 0.00156299,0.0263543 0.017185,0.0265709 0.0169528,0.000232283 0.0353228,-0.0151614 0.0354685,-0.0258425 0.000740157,-0.053248 -0.0242953,-0.0705591 -0.0780118,-0.0712992l-0.00877559 -0.000122047c-0.0378819,-0.000523622 -0.0622992,0.0619646 -0.0628898,0.104461l-0.000122047 0.00877559c-0.00123622,0.0895472 0.116413,0.106945 0.209169,0.108228l-0.000850394 0.0614291c-0.000755906,0.0547047 -0.0260079,0.0864764 -0.0455787,0.12226l0.00877559 0.000122047c0.0339449,-0.0220591 0.0523898,-0.0677205 0.0543543,-0.122138 0.007,0.00500787 0.0214252,0.0178543 0.0260866,0.0179173 0.0237008,0.000326772 0.0242559,-0.00385827 0.044,-0.00816929 0.00596063,-0.0234567 0.00900787,-0.0164213 0.00926378,-0.0349843 0.000177165,-0.0128307 -0.0106457,-0.0130236 -0.0189213,-0.0181969l-0.0164252 0.0352677c-0.0146496,-0.0104843 -0.0175354,-0.00150394 -0.017189,-0.0265748l0.00525984 -0.0476102 0.0753031 -0.0653858c0.017874,0.0818268 0.0555315,0.149992 0.155906,0.151378l0.0702087 0.000972441c0.0320748,0.000444882 0.0710472,-0.059752 0.0715433,-0.095563l0.000606299 -0.0438819c0.000413386,-0.0297362 -0.0714331,-0.0712087 -0.104343,-0.0716654l-0.0175512 -0.000240157c-0.0424488,-0.000590551 -0.0705906,0.0267835 -0.0711772,0.0692362l-0.000122047 0.00877559c-0.000598425,0.043374 0.0345118,0.0794764 0.0778898,0.0800787l0.00877559 0.00011811c0.0315354,0.000437008 0.0411929,-0.038189 0.0535079,-0.0607047 -0.0100394,-0.0154488 -0.0277913,-0.0442717 -0.0520512,-0.0446102l-0.00877165 -0.00011811c-0.0288189,-0.000401575 -0.0254724,0.0219961 -0.0444882,0.0432717l0.000728346 -0.0526535c0.0111614,-0.0057126 0.0292598,-0.0171535 0.044122,-0.0169449 0.0331929,0.000456693 0.0959724,0.0419449 0.095563,0.0715433 -0.00053937,0.0391535 -0.0384567,0.0798898 -0.0627677,0.095685 -0.215598,-0.00298031 -0.156472,-0.099 -0.183949,-0.253969 -0.0143031,-0.0806654 -0.0451535,-0.0836457 -0.0895866,-0.129303 -0.0461457,-0.0474252 -0.0580591,-0.0812953 -0.0876181,-0.137339l0.0700551 -0.0100827c-0.000326772,-0.0389331 0.00335827,-0.040685 -0.0346063,-0.0442992l0.0171772 0.0352835c-0.000173228,0.000137795 -0.0164961,0.00854724 -0.0176772,0.0085315 -0.0204646,-0.000283465 -0.0435551,-0.0240236 -0.0432717,-0.0444882l-0.0029685 -0.0357441 0.0225866 -0.113205c0.0409488,0.0308819 0.0188031,0.0983268 0.0944724,0.150528z"/>
  <g id="_335378824">
   <path id="_335360272" class="fil2 str2" d="M3.68882 6.02746c-0.0713189,-0.271315 -0.12628,-0.695807 0.0847441,-0.972563 0.28328,-0.321547 0.708909,-0.259476 0.969287,-0.0949685 0.232776,0.183055 0.106122,0.634598 0.0430236,0.937614 -0.279398,-0.149724 -0.675618,-0.120929 -1.00711,0.0594567l-0.0899449 0.0704606z"/>
   <path id="_335368504" class="fil2 str2" d="M3.73796 6.08215c0.302264,-0.163732 0.710559,-0.313571 0.979075,-0.13939 -0.287421,0.232697 -0.725618,0.365673 -0.979075,0.13939z"/>
   <path id="_335369752" class="fil2 str2" d="M4.95035 4.54178l-0.0962638 0.225433 0.221358 -0.0131457 -0.264827 0.194516c0,0 -0.210268,-0.206689 -0.58424,-0.199114 -0.345433,0.007 -0.446685,0.209567 -0.446685,0.209567 0,0 -0.0922835,-0.0244488 -0.133618,-0.045185 -0.0413346,-0.0207205 -0.278059,-0.238953 -0.278059,-0.238953l0.359134 0.0922953 -0.135602 -0.332083 0.343992 0.158402 0.00483071 -0.356583 0.208217 0.218457 0.185433 -0.300122 0.0655591 0.335307 0.274961 -0.202315 0.0428976 0.355984 0.232913 -0.102461z"/>
   <path id="_335373136" class="fil2 str2" d="M5.2537 4.66988c-0.196602,-0.417618 -0.720957,-0.588909 -1.15113,-0.575535 -0.376354,0.045748 -0.62513,0.298638 -0.822606,0.576323 -0.439067,-0.522232 -0.0407205,-1.721 1.02148,-1.70718 0.945346,0.108886 1.45289,0.852433 0.95226,1.70639zm-0.428638 -0.92026c0.0370787,0.0613583 0.116343,0.0592323 0.177083,-0.00479528 0.0607638,-0.0639843 0.0799331,-0.165693 0.0428661,-0.227059 -0.0370472,-0.0613858 -0.116331,-0.059252 -0.177071,0.00477559 -0.0607362,0.0639843 -0.0799331,0.165677 -0.042878,0.227079zm-0.16439 0.0119724c-0.0273346,-0.0452323 -0.0858543,-0.0436811 -0.13065,0.00351969 -0.0448228,0.047252 -0.0589724,0.122248 -0.0316575,0.167516 0.0273701,0.0452913 0.0858386,0.0437205 0.130654,-0.00349213 0.0448189,-0.0472402 0.0589488,-0.122252 0.0316535,-0.167543zm0.353949 0.250461c0.0286575,0.047437 0.089878,0.045815 0.136795,-0.00366929 0.0469685,-0.0494567 0.0617874,-0.128 0.0331457,-0.175433 -0.0286417,-0.0474291 -0.0898661,-0.0457992 -0.136803,0.00367717 -0.046937,0.0494724 -0.0617598,0.127992 -0.0331378,0.175425z"/>
  </g>
  <rect class="fil0 str0" transform="matrix(0.590764 0.518505 -0.518505 0.590764 2.5926 2.68549)" width="1.95556" height="0.0168583"/>
  <rect class="fil0 str0" x="4.74978" y="6.44026" width="1.45694" height="0.0252231"/>
  <rect class="fil0 str0" x="5.13513" y="4.67817" width="1.45694" height="0.0252231"/>
  <rect class="fil0 str0" x="2.31254" y="5.21511" width="1.45694" height="0.0252231"/>
  <path class="fil3" d="M6.73001 4.69373l0 -0.0221575 0.080126 -0.000129921 0 0.0701654c-0.0122913,0.00982283 -0.0249764,0.0171811 -0.0380591,0.0221575 -0.0130827,0.00493307 -0.0265157,0.00740157 -0.0402598,0.00740157 -0.0185866,0 -0.0355039,-0.00396457 -0.0506535,-0.011937 -0.0151969,-0.00792913 -0.0266496,-0.0194685 -0.0344016,-0.0344921 -0.00775197,-0.015063 -0.0116299,-0.0318898 -0.0116299,-0.0504764 0,-0.0184134 0.00387795,-0.0355906 0.0115866,-0.0515354 0.00766142,-0.0159921 0.0187638,-0.0278386 0.0332087,-0.0355906 0.0144488,-0.00770866 0.0310984,-0.0115866 0.0499528,-0.0115866 0.0136535,0 0.0260315,0.00220079 0.0370866,0.00664961 0.0110551,0.00440551 0.0197362,0.0105748 0.0259882,0.0185039 0.00629921,0.0079252 0.0110551,0.0182323 0.0143622,0.0309646l-0.0225984 0.00620866c-0.0028622,-0.00964567 -0.00638583,-0.0172205 -0.0105709,-0.0227283 -0.00422835,-0.00550394 -0.0102638,-0.00990945 -0.0181024,-0.0132126 -0.00779921,-0.00330315 -0.0165197,-0.00497638 -0.0260354,-0.00497638 -0.0114528,0 -0.0213622,0.00175984 -0.029685,0.00524016 -0.00837008,0.00348031 -0.0150669,0.00805906 -0.0202205,0.0137441 -0.00511024,0.0056811 -0.0090748,0.0118898 -0.011937,0.0187205 -0.00479921,0.0116693 -0.00722441,0.0243583 -0.00722441,0.0380551 0,0.0168701 0.00290945,0.0309646 0.00872441,0.0423307 0.00581102,0.0113661 0.0142717,0.0197756 0.0253701,0.0252835 0.0110984,0.00550787 0.0228622,0.00827953 0.0353268,0.00827953 0.010878,0 0.0214488,-0.00211417 0.0317598,-0.00629921 0.0103504,-0.0041378 0.0181457,-0.00858661 0.0234764,-0.0133465l0 -0.0352362 -0.0555906 0z"/>
  <path id="1" class="fil3" d="M6.84418 4.6055l0 -0.0267362 0.0232559 0 0 0.0267362 -0.0232559 0zm0 0.162449l0 -0.137031 0.0232559 0 0 0.137031 -0.0232559 0z"/>
  <polygon id="12" class="fil3" points="6.90228,4.76795 6.90228,4.57876 6.92549,4.57876 6.92549,4.76795 "/>
  <polygon id="123" class="fil3" points="6.961,4.76795 6.961,4.57876 6.98421,4.57876 6.98421,4.76795 "/>
  <path id="1234" class="fil3" d="M7.01095 4.72703l0.0229488 -0.00361024c0.00127559,0.00920472 0.00488976,0.016252 0.0107913,0.021185 0.00585827,0.00488976 0.0140945,0.00735827 0.0247126,0.00735827 0.0106575,0 0.0185866,-0.00220472 0.0237402,-0.00651969 0.00515354,-0.0043622 0.00775197,-0.00947244 0.00775197,-0.0152835 0,-0.0052874 -0.00229134,-0.00938583 -0.00687008,-0.0124252 -0.00317323,-0.00206693 -0.0111024,-0.00466535 -0.0237441,-0.00783858 -0.017,-0.00431496 -0.0288504,-0.00801575 -0.0354134,-0.011189 -0.00656299,-0.00312598 -0.0115866,-0.00748819 -0.0149764,-0.0130354 -0.00338976,-0.00555118 -0.00511024,-0.0116732 -0.00511024,-0.0183701 0,-0.00612205 0.00140945,-0.0117598 0.00422835,-0.0169567 0.00277559,-0.00524409 0.0066063,-0.00955906 0.0114094,-0.0129961 0.00361024,-0.00264173 0.00854331,-0.00493307 0.0147559,-0.00678346 0.00625591,-0.00185039 0.0129488,-0.00277559 0.0200866,-0.00277559 0.010748,0 0.0201732,0.00158661 0.0283228,0.00466929 0.00814961,0.00308268 0.0141378,0.00726772 0.0180157,0.0125551 0.00387402,0.00533071 0.00651969,0.012378 0.00797244,0.0212323l-0.022685 0.00312598c-0.00105906,-0.00704724 -0.00405118,-0.0125551 -0.00898425,-0.0165197 -0.00493701,-0.00396457 -0.011937,-0.00594488 -0.0209685,-0.00594488 -0.0106614,0 -0.0182795,0.00175984 -0.022815,0.00528346 -0.00458268,0.00352756 -0.00687402,0.00766535 -0.00687402,0.012378 0,0.00303937 0.000968504,0.00572835 0.0028622,0.00814961 0.0018937,0.00251181 0.00484646,0.00453937 0.00889764,0.0062126 0.00233465,0.000834646 0.00916535,0.0028189 0.0205276,0.00590157 0.0164291,0.00440551 0.0278819,0.00797244 0.0343583,0.0107913 0.00651969,0.00277559 0.0116299,0.00687008 0.0153268,0.0122008 0.00370079,0.00533071 0.00555118,0.011937 0.00555118,0.0198661 0,0.00775197 -0.00229134,0.0150197 -0.00678346,0.0218937 -0.00453543,0.00682677 -0.0110551,0.0121102 -0.0195551,0.0158543 -0.00850394,0.00374409 -0.0181496,0.00559449 -0.0288976,0.00559449 -0.0178386,0 -0.0314055,-0.00370079 -0.0407441,-0.0110984 -0.00933858,-0.00740157 -0.0152835,-0.0183701 -0.0178386,-0.0329055z"/>
  <path class="fil3" d="M2.22196 2.59284l0.025063 0.00634252c-0.00524409,0.0205236 -0.0147126,0.0362047 -0.0283228,0.0470433 -0.0136575,0.0107913 -0.0303071,0.0161654 -0.0500394,0.0161654 -0.0203937,0 -0.0369567,-0.00414173 -0.0497283,-0.0124213 -0.0127756,-0.00832677 -0.0225118,-0.0203504 -0.0291614,-0.0360748 -0.00664961,-0.0157717 -0.01,-0.032685 -0.01,-0.0507441 0,-0.019689 0.00374409,-0.0368701 0.0112756,-0.0515354 0.00753543,-0.0146693 0.0182362,-0.025815 0.0321575,-0.0334331 0.013874,-0.00762205 0.0291575,-0.0114094 0.0458543,-0.0114094 0.0189409,0 0.0348425,0.00480315 0.047748,0.0144488 0.0129055,0.00964567 0.0218898,0.0231693 0.0269567,0.0406535l-0.024622 0.00581496c-0.00440551,-0.0137874 -0.010748,-0.0237835 -0.0191181,-0.0300827 -0.00832677,-0.00629921 -0.0188071,-0.0094252 -0.0314961,-0.0094252 -0.0145354,0 -0.0266457,0.00347638 -0.0364252,0.010437 -0.00977953,0.00700394 -0.0166496,0.0163425 -0.0205709,0.0281024 -0.00396457,0.0117165 -0.00594488,0.0238307 -0.00594488,0.0362953 0,0.016122 0.00233465,0.0301299 0.007,0.0421535 0.00471654,0.0119803 0.0119843,0.0209685 0.0218937,0.0269134 0.00990945,0.00594882 0.0206142,0.00889764 0.0321535,0.00889764 0.0140079,0 0.0258583,-0.00405118 0.0355906,-0.0121102 0.00973622,-0.0081063 0.0162992,-0.0201299 0.0197362,-0.0360315z"/>
  <path id="1" class="fil3" d="M2.36431 2.64226c-0.00862992,0.00731102 -0.0169134,0.0124646 -0.0248425,0.0155039 -0.00797244,0.00299606 -0.0165157,0.00449213 -0.0256339,0.00449213 -0.015063,0 -0.0266063,-0.00365354 -0.0347087,-0.0110118 -0.00806299,-0.00735433 -0.0121142,-0.0167835 -0.0121142,-0.028189 0,-0.00674016 0.00149606,-0.0128622 0.00457874,-0.0184134 0.00303937,-0.00555118 0.00705118,-0.01 0.0119843,-0.0133465 0.00497638,-0.00334646 0.0105276,-0.00590157 0.0167362,-0.00762205 0.00453543,-0.00118898 0.0114094,-0.00237795 0.0206142,-0.00347638 0.0187638,-0.00224803 0.0325945,-0.00488976 0.0414488,-0.00801969 9.05512e-005,-0.00316929 0.000133858,-0.00519685 0.000133858,-0.0060315 0,-0.00947244 -0.00220472,-0.0161654 -0.0066063,-0.02 -0.00590551,-0.00528346 -0.0147559,-0.00788583 -0.0264291,-0.00788583 -0.0109252,0 -0.0189843,0.00189764 -0.0242283,0.00572835 -0.00519685,0.00383071 -0.00902756,0.0106142 -0.0115394,0.0203504l-0.022685 -0.00312598c0.00207087,-0.00969291 0.00546063,-0.0175787 0.0101732,-0.0235236 0.00471654,-0.00599213 0.0115866,-0.0106142 0.0205276,-0.0138307 0.00894094,-0.00321654 0.0192953,-0.00484646 0.0310984,-0.00484646 0.0117165,0 0.021185,0.00140945 0.0285,0.00414173 0.00731102,0.00277559 0.012685,0.00620866 0.0161654,0.0103937 0.00343307,0.00418504 0.00581496,0.00942913 0.00722441,0.015815 0.000748031,0.00396457 0.00114567,0.0110984 0.00114567,0.0214055l0 0.0309685c0,0.021626 0.000484252,0.0352795 0.00149606,0.0409646 0.000968504,0.00572441 0.00295276,0.0112323 0.00585827,0.0164724l-0.0242717 0c-0.00237795,-0.00480315 -0.00396457,-0.0104409 -0.00462598,-0.0169134zm-0.00193701 -0.0518898c-0.00845669,0.00348031 -0.0210984,0.00638583 -0.0379252,0.00881102 -0.00955906,0.00136614 -0.0163425,0.00290551 -0.0202598,0.00462205 -0.00396457,0.00172047 -0.00704724,0.00423228 -0.00916142,0.00757874 -0.00216142,0.00330315 -0.00325984,0.00696063 -0.00325984,0.0110118 0,0.00620866 0.00237795,0.0113622 0.00704724,0.0155039 0.00466929,0.00409843 0.0115394,0.00616535 0.0205709,0.00616535 0.00894094,0 0.0169134,-0.00193701 0.023874,-0.00585827 0.00695669,-0.00391732 0.0121102,-0.00929134 0.0153701,-0.0160748 0.00251181,-0.00524409 0.00374409,-0.0129961 0.00374409,-0.0232126l0 -0.00854724z"/>
  <path id="12" class="fil3" d="M2.42189 2.71168l0 -0.189535 0.0211417 0 0 0.0177953c0.00497638,-0.00696063 0.0106142,-0.0122008 0.0169134,-0.0156811 0.00625591,-0.00348031 0.013874,-0.00524409 0.0228189,-0.00524409 0.0117165,0 0.0220236,0.00303937 0.0309646,0.0090315 0.00898425,0.00603543 0.0157244,0.0145354 0.0202598,0.0255039 0.00458268,0.0109685 0.00687402,0.0229921 0.00687402,0.0360748 0,0.0140079 -0.00251181,0.0266496 -0.00757874,0.0378819 -0.00501969,0.0112323 -0.0123307,0.0198189 -0.0219331,0.025811 -0.00960236,0.00594488 -0.019689,0.00894094 -0.0302638,0.00894094 -0.00775197,0 -0.0146654,-0.00162992 -0.0208346,-0.00488976 -0.00616535,-0.00325984 -0.011185,-0.00739764 -0.0151496,-0.012378l0 0.066689 -0.0232126 0zm0.0210079 -0.120248c0,0.0176181 0.00357087,0.0306575 0.0107047,0.0391142 0.00713386,0.00841339 0.015815,0.0126417 0.0259449,0.0126417 0.0103071,0 0.0191614,-0.0043622 0.0265157,-0.013126 0.00735827,-0.00872441 0.0110551,-0.0222441 0.0110551,-0.0405709 0,-0.0174843 -0.00361024,-0.0305236 -0.0107913,-0.0392441 -0.00717717,-0.00867717 -0.0157677,-0.0130394 -0.0257244,-0.0130394 -0.00990945,0 -0.0186732,0.00462598 -0.0262953,0.013874 -0.00762205,0.00925197 -0.0114094,0.0227283 -0.0114094,0.0403504z"/>
  <path class="fil3" d="M1.60721 5.22845l0.0236102 -0.00207087c0.00109843,0.00947244 0.00369685,0.0172244 0.00779528,0.0233031 0.00409449,0.00607874 0.0104409,0.0109685 0.0190276,0.0147126 0.00859055,0.00374409 0.0182795,0.00559449 0.0290276,0.00559449 0.00955906,0 0.0179724,-0.00140945 0.0252835,-0.00422835 0.00731496,-0.00286614 0.0127756,-0.00674016 0.0163425,-0.0116732 0.00356693,-0.00497638 0.00537402,-0.0103504 0.00537402,-0.0162087 0,-0.00594882 -0.00171654,-0.0111024 -0.00519685,-0.0155512 -0.00343701,-0.00444882 -0.00911811,-0.00814961 -0.0170039,-0.0111417 -0.00511024,-0.00198425 -0.0162953,-0.00506693 -0.0336969,-0.00925197 -0.0173543,-0.00418504 -0.0295551,-0.0081063 -0.0365157,-0.0118031 -0.00902756,-0.00471654 -0.0157677,-0.0106181 -0.0202165,-0.017622 -0.00440551,-0.00700394 -0.0066063,-0.0148425 -0.0066063,-0.023563 0,-0.00951575 0.00268504,-0.0184567 0.00810236,-0.0267402 0.00541732,-0.00832283 0.0133465,-0.014622 0.0237441,-0.018937 0.010437,-0.00427559 0.0219803,-0.00643307 0.0347087,-0.00643307 0.0140512,0 0.0263858,0.00224803 0.0371339,0.00678346 0.0107008,0.00449213 0.0189409,0.0111457 0.0247087,0.0199094 0.00572835,0.00876772 0.00885433,0.0187205 0.00929528,0.0298228l-0.0240079 0.00180315c-0.0013189,-0.011937 -0.0056811,-0.0210118 -0.013126,-0.0270906 -0.00744488,-0.00612205 -0.0184094,-0.00916142 -0.0329449,-0.00916142 -0.0151535,0 -0.0261654,0.00277559 -0.033126,0.00832677 -0.00691732,0.00555118 -0.0103937,0.0122441 -0.0103937,0.0200433 0,0.00682677 0.00246457,0.0124213 0.00735433,0.0167795 0.00484646,0.00440551 0.0173976,0.00889764 0.037748,0.0134803 0.0203504,0.00462598 0.034315,0.00863386 0.0418898,0.0120669 0.0110118,0.00511024 0.0191614,0.0115433 0.0244016,0.0192953 0.00524409,0.00779528 0.00784252,0.0167795 0.00784252,0.0269134 0,0.0100866 -0.0028622,0.0195551 -0.00863386,0.0284528 -0.00577165,0.00889764 -0.0140512,0.015815 -0.0248425,0.0207913 -0.0107913,0.00493307 -0.0229488,0.00740157 -0.0364291,0.00740157 -0.0171339,0 -0.0314921,-0.0024685 -0.0430354,-0.00748819 -0.0115827,-0.00498031 -0.0206575,-0.0124685 -0.0272638,-0.0225079 -0.00656299,-0.01 -0.0100433,-0.0213661 -0.0103504,-0.0340079z"/>
  <path id="1" class="fil3" d="M1.83974 5.26845l0.00334646 0.0205276c-0.00651575,0.00136614 -0.012374,0.00207087 -0.0175276,0.00207087 -0.00846063,0 -0.0149764,-0.00132283 -0.0196457,-0.00400787 -0.00462598,-0.00264567 -0.00788583,-0.00616929 -0.00977953,-0.0105276 -0.0018937,-0.0043189 -0.0028622,-0.0134803 -0.0028622,-0.0273976l0 -0.0788465 -0.0170472 0 0 -0.0180591 0.0170472 0 0 -0.0339606 0.023122 -0.0139213 0 0.0478819 0.0233465 0 0 0.0180591 -0.0233465 0 0 0.080122c0,0.00664961 0.000397638,0.0108819 0.00118898,0.0127756 0.000838583,0.0018937 0.00216142,0.00338976 0.00401181,0.00453543 0.00184646,0.00110236 0.00449213,0.00167323 0.0079252,0.00167323 0.00260236,0 0.00599213,-0.000307087 0.0102205,-0.000925197z"/>
  <path id="12" class="fil3" d="M1.95624 5.2451l0.0240079 0.00295276c-0.00379134,0.0140512 -0.0107913,0.0249331 -0.0210118,0.032685 -0.0102638,0.00770866 -0.0233465,0.0115827 -0.039248,0.0115827 -0.0200394,0 -0.0359409,-0.00616535 -0.0476575,-0.0185 -0.0117638,-0.0123346 -0.017622,-0.0296417 -0.017622,-0.0519331 0,-0.0230787 0.00594882,-0.0409646 0.0177953,-0.0536929 0.0118937,-0.0127283 0.0272677,-0.0191181 0.0462087,-0.0191181 0.0183228,0 0.0332992,0.00625591 0.0448858,0.0187205 0.011626,0.0124646 0.0174409,0.0300433 0.0174409,0.0526378 0,0.00140945 -4.33071e-005,0.00348031 -0.000133858,0.0062126l-0.102189 0c0.000838583,0.015063 0.00511024,0.0266024 0.0127756,0.0345748 0.00766142,0.00801969 0.0171772,0.0120276 0.0286299,0.0120276 0.0085,0 0.0157677,-0.00224803 0.0218031,-0.00674016 0.00603543,-0.00444882 0.0107913,-0.0115866 0.014315,-0.0214094zm-0.076248 -0.0375709l0.0765118 0c-0.00101181,-0.0114961 -0.00396457,-0.0201732 -0.00876378,-0.0259016 -0.00740157,-0.00894094 -0.0170039,-0.0134331 -0.0287638,-0.0134331 -0.0106614,0 -0.0196457,0.00356693 -0.0269134,0.0107047 -0.00726772,0.00713386 -0.0112756,0.0166929 -0.0120709,0.0286299z"/>
  <path id="123" class="fil3" d="M2.00946 5.28924l0 -0.137031 0.0207441 0 0 0.0192047c0.0043189,-0.00669685 0.0100433,-0.0121142 0.0171811,-0.0161654 0.00713386,-0.00409843 0.0152835,-0.00616929 0.0244016,-0.00616929 0.0101299,0 0.0184567,0.00211417 0.0249291,0.00634252 0.00651969,0.00422835 0.0111024,0.0100866 0.0137441,0.0176654 0.010878,-0.0159921 0.0249764,-0.0240079 0.0423307,-0.0240079 0.0136102,0 0.0240512,0.0037874 0.0313622,0.0113228 0.00731102,0.0075315 0.0109685,0.0191142 0.0109685,0.034752l0 0.0940866 -0.0230827 0 0 -0.0863346c0,-0.00929528 -0.000748031,-0.0159882 -0.00224803,-0.0200866 -0.00153937,-0.00405118 -0.00427165,-0.00735433 -0.00819291,-0.00986614 -0.00396063,-0.00246457 -0.00862992,-0.00374409 -0.0139606,-0.00374409 -0.00964567,0 -0.0176181,0.00321654 -0.0240079,0.00964567 -0.00634252,0.00638976 -0.00955906,0.0166535 -0.00955906,0.030748l0 0.0796378 -0.0232126 0 0 -0.0890197c0,-0.0103543 -0.0018937,-0.0181063 -0.0056811,-0.0232598 -0.0037874,-0.00515354 -0.00995669,-0.00775197 -0.0185866,-0.00775197 -0.00651969,0 -0.0125551,0.00172047 -0.0181063,0.00519685 -0.00554724,0.00343701 -0.00960236,0.00846063 -0.0120669,0.0150669 -0.00251181,0.00664961 -0.00374409,0.0162087 -0.00374409,0.0286732l0 0.0710945 -0.0232126 0z"/>
  <path class="fil3" d="M6.23969 6.37192l0 -0.189185 0.0377047 0 0.044752 0.133949c0.00414173,0.0124646 0.0071811,0.0218031 0.0090315,0.0280157 0.00215748,-0.00687402 0.00550394,-0.0170039 0.0100866,-0.0303504l0.0452795 -0.131614 0.0336969 0 0 0.189185 -0.0241378 0 0 -0.15835 -0.0549724 0.15835 -0.0225945 0 -0.0547087 -0.161039 0 0.161039 -0.0241378 0z"/>
  <path id="1" class="fil3" d="M6.45662 6.42469l-0.00259843 -0.0218031c0.00511024,0.00136614 0.00951575,0.00207087 0.0133031,0.00207087 0.00515354,0 0.00929134,-0.00088189 0.012378,-0.00259843 0.00312598,-0.00171654 0.0056378,-0.00409449 0.00761811,-0.00722441 0.0015,-0.00229134 0.00383465,-0.00805906 0.00709055,-0.0172677 0.000440945,-0.0013189 0.00114567,-0.00316929 0.00207087,-0.0056811l-0.0519764 -0.137295 0.0250197 0 0.0285433 0.0793307c0.00365748,0.0100866 0.00700394,0.0206575 0.00990945,0.0317559 0.00268898,-0.0106575 0.00585827,-0.0210551 0.00955906,-0.0312283l0.0292913 -0.0798583 0.0232165 0 -0.0521102 0.139366c-0.00559449,0.015063 -0.00995669,0.0254173 -0.0130394,0.0310984 -0.0041378,0.00766535 -0.00885433,0.0132559 -0.0141811,0.0168268 -0.00537402,0.00356693 -0.0117165,0.00537402 -0.0191181,0.00537402 -0.00449213,0 -0.0094685,-0.000968504 -0.0149764,-0.00286614z"/>
  <path id="12" class="fil3" d="M6.67924 6.3217l0.0228189 0.00299606c-0.0024685,0.0157244 -0.00885433,0.0280591 -0.0191614,0.0369567 -0.0102638,0.00889764 -0.0229055,0.0133465 -0.0378819,0.0133465 -0.0187205,0 -0.0338268,-0.00612205 -0.0451929,-0.0183661 -0.0114094,-0.012248 -0.0171339,-0.0298228 -0.0171339,-0.0527283 0,-0.0147992 0.0024685,-0.027748 0.00735433,-0.0388465 0.00493701,-0.0111024 0.012378,-0.0194252 0.0224213,-0.0249764 0.01,-0.00555118 0.0209252,-0.00832677 0.032685,-0.00832677 0.0148858,0 0.0270906,0.0037874 0.0365157,0.0113228 0.0094685,0.0075315 0.0155472,0.018189 0.0182362,0.0320669l-0.0225984 0.00347638c-0.00215748,-0.00920472 -0.00594488,-0.0161181 -0.0114094,-0.0207874 -0.00546063,-0.00462598 -0.0120669,-0.00696063 -0.0198189,-0.00696063 -0.0117165,0 -0.0212323,0.00418504 -0.0285433,0.0125984 -0.00731102,0.00836614 -0.0109685,0.021626 -0.0109685,0.0397756 0,0.0184094 0.00352362,0.0318031 0.0106142,0.0401693 0.00704724,0.00832677 0.0162559,0.0125118 0.0276181,0.0125118 0.00911811,0 0.0166969,-0.0028189 0.0228189,-0.00841339 0.00612205,-0.00559449 0.01,-0.014185 0.011626,-0.025815z"/>
  <path id="123" class="fil3" d="M6.72206 6.20947l0 -0.0267362 0.0232559 0 0 0.0267362 -0.0232559 0zm0 0.162449l0 -0.137031 0.0232559 0 0 0.137031 -0.0232559 0z"/>
  <polygon id="1234" class="fil3" points="6.78016,6.37192 6.78016,6.18273 6.80337,6.18273 6.80337,6.37192 "/>
  <path id="12345" class="fil3" d="M6.93318 6.32778l0.0240079 0.00295276c-0.00379134,0.0140512 -0.0107913,0.0249331 -0.0210118,0.032685 -0.0102638,0.00770866 -0.0233465,0.0115827 -0.039248,0.0115827 -0.0200394,0 -0.0359409,-0.00616535 -0.0476575,-0.0185 -0.0117638,-0.0123346 -0.017622,-0.0296417 -0.017622,-0.0519331 0,-0.0230787 0.00594882,-0.0409646 0.0177953,-0.0536929 0.0118937,-0.0127283 0.0272677,-0.0191181 0.0462087,-0.0191181 0.0183228,0 0.0332992,0.00625591 0.0448858,0.0187205 0.011626,0.0124646 0.0174409,0.0300433 0.0174409,0.0526378 0,0.00140945 -4.33071e-005,0.00348031 -0.000133858,0.0062126l-0.102189 0c0.000838583,0.015063 0.00511024,0.0266024 0.0127756,0.0345748 0.00766142,0.00801969 0.0171772,0.0120276 0.0286299,0.0120276 0.0085,0 0.0157677,-0.00224803 0.0218031,-0.00674016 0.00603543,-0.00444882 0.0107913,-0.0115866 0.014315,-0.0214094zm-0.076248 -0.0375709l0.0765118 0c-0.00101181,-0.0114961 -0.00396457,-0.0201732 -0.00876378,-0.0259016 -0.00740157,-0.00894094 -0.0170039,-0.0134331 -0.0287638,-0.0134331 -0.0106614,0 -0.0196457,0.00356693 -0.0269134,0.0107047 -0.00726772,0.00713386 -0.0112756,0.0166929 -0.0120709,0.0286299z"/>
  <path id="123456" class="fil3" d="M6.98648 6.20947l0 -0.0267362 0.0232559 0 0 0.0267362 -0.0232559 0zm0 0.162449l0 -0.137031 0.0232559 0 0 0.137031 -0.0232559 0z"/>
  <path id="1234567" class="fil3" d="M7.13492 6.37192l0 -0.0201299c-0.0107047,0.0155039 -0.0251929,0.0232126 -0.0435197,0.0232126 -0.00805906,0 -0.0156378,-0.00153937 -0.0226378,-0.00462598 -0.00700394,-0.00308268 -0.0122047,-0.00700394 -0.0155945,-0.0116693 -0.00343701,-0.00471654 -0.00581496,-0.0104409 -0.0071811,-0.0172244 -0.000925197,-0.00458268 -0.00140945,-0.0118031 -0.00140945,-0.0217165l0 -0.084878 0.0232126 0 0 0.0759803c0,0.0121575 0.000484252,0.0203071 0.00140945,0.0245354 0.0015,0.00612205 0.00458268,0.010878 0.00929528,0.0144055 0.00475591,0.00347638 0.0106142,0.00519685 0.0175748,0.00519685 0.00696063,0 0.0134803,-0.00176378 0.0196024,-0.00533071 0.00612205,-0.00356693 0.0104409,-0.00845669 0.0129488,-0.0145787 0.00255512,-0.00616929 0.00383465,-0.0151102 0.00383465,-0.0267835l0 -0.0734252 0.0232126 0 0 0.137031 -0.020748 0z"/>
  <path id="12345678" class="fil3" d="M7.1921 6.37192l0 -0.137031 0.0207441 0 0 0.0192047c0.0043189,-0.00669685 0.0100433,-0.0121142 0.0171811,-0.0161654 0.00713386,-0.00409843 0.0152835,-0.00616929 0.0244016,-0.00616929 0.0101299,0 0.0184567,0.00211417 0.0249291,0.00634252 0.00651969,0.00422835 0.0111024,0.0100866 0.0137441,0.0176654 0.010878,-0.0159921 0.0249764,-0.0240079 0.0423307,-0.0240079 0.0136102,0 0.0240512,0.0037874 0.0313622,0.0113228 0.00731102,0.0075315 0.0109685,0.0191142 0.0109685,0.034752l0 0.0940866 -0.0230827 0 0 -0.0863346c0,-0.00929528 -0.000748031,-0.0159882 -0.00224803,-0.0200866 -0.00153937,-0.00405118 -0.00427165,-0.00735433 -0.00819291,-0.00986614 -0.00396063,-0.00246457 -0.00862992,-0.00374409 -0.0139606,-0.00374409 -0.00964567,0 -0.0176181,0.00321654 -0.0240079,0.00964567 -0.00634252,0.00638976 -0.00955906,0.0166535 -0.00955906,0.030748l0 0.0796378 -0.0232126 0 0 -0.0890197c0,-0.0103543 -0.0018937,-0.0181063 -0.0056811,-0.0232598 -0.0037874,-0.00515354 -0.00995669,-0.00775197 -0.0185866,-0.00775197 -0.00651969,0 -0.0125551,0.00172047 -0.0181063,0.00519685 -0.00554724,0.00343701 -0.00960236,0.00846063 -0.0120669,0.0150669 -0.00251181,0.00664961 -0.00374409,0.0162087 -0.00374409,0.0286732l0 0.0710945 -0.0232126 0z"/>
 </g>
</svg>
